<svg id="Layer_3" enable-background="new 0 0 64 64" height="512" viewBox="0 0 64 64" width="512" xmlns="http://www.w3.org/2000/svg"><g><path d="m14 16h26v12h-26z" fill="#f4b2b0"/><path d="m46 2v8h8" fill="#f4b2b0"/><path d="m34 42h6v16h-6z" fill="#f4b2b0"/><g fill="#b3404a"><path d="m14 59h6c.553 0 1-.448 1-1v-6c0-.552-.447-1-1-1h-6c-.553 0-1 .448-1 1v6c0 .552.447 1 1 1zm1-6h4v4h-4z"/><path d="m30 51h-6c-.553 0-1 .448-1 1v6c0 .552.447 1 1 1h6c.553 0 1-.448 1-1v-6c0-.552-.447-1-1-1zm-1 6h-4v-4h4z"/><path d="m14 49h6c.553 0 1-.448 1-1v-6c0-.552-.447-1-1-1h-6c-.553 0-1 .448-1 1v6c0 .552.447 1 1 1zm1-6h4v4h-4z"/><path d="m30 41h-6c-.553 0-1 .448-1 1v6c0 .552.447 1 1 1h6c.553 0 1-.448 1-1v-6c0-.552-.447-1-1-1zm-1 6h-4v-4h4z"/><path d="m14 39h16c.553 0 1-.448 1-1v-6c0-.552-.447-1-1-1h-16c-.553 0-1 .448-1 1v6c0 .552.447 1 1 1zm1-6h14v4h-14z"/><path d="m40 31h-6c-.553 0-1 .448-1 1v6c0 .552.447 1 1 1h6c.553 0 1-.448 1-1v-6c0-.552-.447-1-1-1zm-1 6h-4v-4h4z"/><path d="m40 41h-6c-.553 0-1 .448-1 1v16c0 .552.447 1 1 1h6c.553 0 1-.448 1-1v-16c0-.552-.447-1-1-1zm-1 16h-4v-14h4z"/><path d="m14 63h26c2.757 0 5-2.243 5-5v-1h9c.553 0 1-.448 1-1v-46c0-.265-.105-.52-.293-.707l-8-8c-.187-.188-.441-.293-.707-.293h-30c-.553 0-1 .448-1 1v9h-1c-2.757 0-5 2.243-5 5v42c0 2.757 2.243 5 5 5zm33-58.586 4.586 4.586h-4.586zm-30-1.414h28v7c0 .552.447 1 1 1h7v44h-8v-39c0-2.757-2.243-5-5-5h-23zm-6 13c0-1.654 1.346-3 3-3h26c1.654 0 3 1.346 3 3v42c0 1.654-1.346 3-3 3h-26c-1.654 0-3-1.346-3-3z"/><path d="m14 29h26c.553 0 1-.448 1-1v-12c0-.552-.447-1-1-1h-26c-.553 0-1 .448-1 1v12c0 .552.447 1 1 1zm1-12h16.586l-4.293 4.293 1.414 1.414 5.707-5.707h4.586v10h-8.586l4.293-4.293-1.414-1.414-5.707 5.707h-12.586z"/><path d="m19 5h2v2h-2z"/><path d="m23 5h20v2h-20z"/></g></g></svg>